<svg width="223" height="14" viewBox="0 0 223 14" fill="none" xmlns="http://www.w3.org/2000/svg">
<path d="M6.19719 13.08C5.36519 13.08 4.59719 12.9307 3.89319 12.632C3.19985 12.3227 2.59185 11.8907 2.06919 11.336C1.55719 10.7813 1.15719 10.1307 0.869188 9.384C0.581188 8.62667 0.437188 7.80533 0.437188 6.92C0.437188 6.03467 0.581188 5.21867 0.869188 4.472C1.15719 3.71467 1.55719 3.05867 2.06919 2.504C2.59185 1.94933 3.19985 1.52267 3.89319 1.224C4.59719 0.914666 5.36519 0.759999 6.19719 0.759999C7.02919 0.759999 7.79719 0.914666 8.50119 1.224C9.20519 1.52267 9.81319 1.94933 10.3252 2.504C10.8479 3.05867 11.2479 3.71467 11.5252 4.472C11.8132 5.21867 11.9572 6.03467 11.9572 6.92C11.9572 7.80533 11.8132 8.62667 11.5252 9.384C11.2479 10.1307 10.8479 10.7813 10.3252 11.336C9.81319 11.8907 9.20519 12.3227 8.50119 12.632C7.79719 12.9307 7.02919 13.08 6.19719 13.08ZM6.53319 11.736C7.05585 11.736 7.50919 11.56 7.89319 11.208C8.27719 10.856 8.57585 10.36 8.78919 9.72C9.00252 9.08 9.10919 8.33333 9.10919 7.48C9.10919 6.46667 8.96519 5.55467 8.67719 4.744C8.38919 3.93333 7.99985 3.29333 7.50919 2.824C7.01852 2.344 6.46919 2.104 5.86119 2.104C5.34919 2.104 4.89585 2.28 4.50119 2.632C4.11719 2.984 3.81852 3.48 3.60519 4.12C3.39185 4.76 3.28519 5.50667 3.28519 6.36C3.28519 7.36267 3.42919 8.27467 3.71719 9.096C4.00519 9.90667 4.39452 10.552 4.88519 11.032C5.37585 11.5013 5.92519 11.736 6.53319 11.736ZM21.9117 13.08C21.581 13.08 21.2184 13.064 20.8237 13.032C20.429 13.0107 20.029 12.9733 19.6237 12.92C19.613 12.6747 19.6024 12.2907 19.5917 11.768C19.581 11.2347 19.5704 10.616 19.5597 9.912C19.549 9.19733 19.5384 8.44 19.5277 7.64C19.517 6.84 19.5064 6.03467 19.4957 5.224C19.4957 4.41333 19.4904 3.64 19.4797 2.904C19.4797 2.168 19.4797 1.52267 19.4797 0.967999C20.0557 0.904 20.605 0.856 21.1277 0.823999C21.661 0.781333 22.1517 0.759999 22.5997 0.759999C24.1997 0.759999 25.4424 0.999999 26.3277 1.48C27.213 1.96 27.6557 2.64267 27.6557 3.528C27.6557 4.65867 26.8877 5.53867 25.3517 6.168C26.2584 6.41333 26.9837 6.824 27.5277 7.4C28.0717 7.976 28.3437 8.62667 28.3437 9.352C28.3437 10.0667 28.0664 10.7067 27.5117 11.272C26.9677 11.8373 26.2104 12.28 25.2397 12.6C24.2797 12.92 23.1704 13.08 21.9117 13.08ZM21.9917 1.928C21.9917 3.47467 22.0024 4.89867 22.0237 6.2C22.621 6.104 23.1437 5.94933 23.5917 5.736C24.0504 5.512 24.4077 5.24533 24.6637 4.936C24.9304 4.62667 25.0637 4.30133 25.0637 3.96C25.0637 3.58667 24.9197 3.25067 24.6317 2.952C24.3544 2.64267 23.981 2.39733 23.5117 2.216C23.053 2.024 22.5464 1.928 21.9917 1.928ZM22.2797 11.944C22.8557 11.944 23.389 11.8533 23.8797 11.672C24.3704 11.4907 24.765 11.2507 25.0637 10.952C25.3624 10.6427 25.5117 10.296 25.5117 9.912C25.5117 9.496 25.3464 9.09067 25.0157 8.696C24.6957 8.29067 24.269 7.944 23.7357 7.656C23.213 7.368 22.653 7.18667 22.0557 7.112C22.0984 9.01067 22.173 10.6213 22.2797 11.944ZM38.6641 13.08C38.4187 13.0693 38.0134 13.0587 37.4481 13.048C36.8827 13.0373 36.1947 13.0267 35.3841 13.016C34.5841 13.016 33.6987 13.0107 32.7281 13C31.7681 13 30.7707 13 29.7361 13C29.6401 10.8027 29.5707 8.712 29.5281 6.728C29.4854 4.744 29.4641 2.81333 29.4641 0.936C29.7094 0.925333 30.1361 0.919999 30.7441 0.919999C31.3521 0.909333 32.0347 0.903999 32.7921 0.903999C32.7921 1.68267 32.7867 2.54133 32.7761 3.48C32.7761 4.41867 32.7654 5.37867 32.7441 6.36C32.7334 7.34133 32.7174 8.30133 32.6961 9.24C32.6854 10.168 32.6641 11.0267 32.6321 11.816C33.7414 11.816 34.8187 11.8053 35.8641 11.784C36.9094 11.752 37.8267 11.7147 38.6161 11.672L38.6641 13.08ZM44.0253 13.08C43.1933 13.08 42.4253 12.9307 41.7213 12.632C41.028 12.3227 40.42 11.8907 39.8973 11.336C39.3853 10.7813 38.9853 10.1307 38.6973 9.384C38.4093 8.62667 38.2653 7.80533 38.2653 6.92C38.2653 6.03467 38.4093 5.21867 38.6973 4.472C38.9853 3.71467 39.3853 3.05867 39.8973 2.504C40.42 1.94933 41.028 1.52267 41.7213 1.224C42.4253 0.914666 43.1933 0.759999 44.0253 0.759999C44.8573 0.759999 45.6253 0.914666 46.3293 1.224C47.0333 1.52267 47.6413 1.94933 48.1533 2.504C48.676 3.05867 49.076 3.71467 49.3533 4.472C49.6413 5.21867 49.7853 6.03467 49.7853 6.92C49.7853 7.80533 49.6413 8.62667 49.3533 9.384C49.076 10.1307 48.676 10.7813 48.1533 11.336C47.6413 11.8907 47.0333 12.3227 46.3293 12.632C45.6253 12.9307 44.8573 13.08 44.0253 13.08ZM44.3613 11.736C44.884 11.736 45.3373 11.56 45.7213 11.208C46.1053 10.856 46.404 10.36 46.6173 9.72C46.8306 9.08 46.9373 8.33333 46.9373 7.48C46.9373 6.46667 46.7933 5.55467 46.5053 4.744C46.2173 3.93333 45.828 3.29333 45.3373 2.824C44.8466 2.344 44.2973 2.104 43.6893 2.104C43.1773 2.104 42.724 2.28 42.3293 2.632C41.9453 2.984 41.6466 3.48 41.4333 4.12C41.22 4.76 41.1133 5.50667 41.1133 6.36C41.1133 7.36267 41.2573 8.27467 41.5453 9.096C41.8333 9.90667 42.2226 10.552 42.7133 11.032C43.204 11.5013 43.7533 11.736 44.3613 11.736ZM56.2221 13.08C55.1554 13.08 54.2061 12.8293 53.3741 12.328C52.5527 11.8267 51.9074 11.1333 51.4381 10.248C50.9687 9.36267 50.7341 8.344 50.7341 7.192C50.7341 6.25333 50.8887 5.39467 51.1981 4.616C51.5181 3.82667 51.9661 3.144 52.5421 2.568C53.1181 1.992 53.7954 1.54933 54.5741 1.24C55.3634 0.919999 56.2274 0.759999 57.1661 0.759999C58.1154 0.759999 58.9847 0.919999 59.7741 1.24C60.5741 1.56 61.1874 1.992 61.6141 2.536C60.9101 3.336 60.2007 3.976 59.4861 4.456C58.7394 2.92 57.7047 2.152 56.3821 2.152C55.4967 2.152 54.8034 2.49867 54.3021 3.192C53.8007 3.87467 53.5501 4.83467 53.5501 6.072C53.5501 6.84 53.6407 7.56 53.8221 8.232C54.0141 8.904 54.2701 9.50133 54.5901 10.024C54.9101 10.536 55.2781 10.9413 55.6941 11.24C56.1207 11.528 56.5741 11.672 57.0541 11.672C57.4167 11.672 57.7314 11.5973 57.9981 11.448C58.2754 11.288 58.4354 11.0907 58.4781 10.856C58.4674 10.6213 58.4461 10.3333 58.4141 9.992C58.3927 9.64 58.3607 9.272 58.3181 8.888C58.2861 8.504 58.2541 8.13067 58.2221 7.768C57.3154 7.74667 56.6487 7.72 56.2221 7.688L56.1741 6.472C57.2941 6.472 58.3607 6.46133 59.3741 6.44C60.3981 6.41867 61.2941 6.38667 62.0621 6.344L62.0141 7.816C61.6514 7.816 61.2994 7.816 60.9581 7.816C60.9901 8.27467 61.0114 8.81333 61.0221 9.432C61.0434 10.04 61.0541 10.6427 61.0541 11.24C60.6594 11.6133 60.1954 11.9387 59.6621 12.216C59.1287 12.4933 58.5687 12.7067 57.9821 12.856C57.3954 13.0053 56.8087 13.08 56.2221 13.08ZM71.5411 13.08C71.2317 13.08 70.9064 13.0693 70.5651 13.048C70.2344 13.0373 69.9091 13.0213 69.5891 13C69.5891 11.8373 69.5891 10.6693 69.5891 9.496C69.5997 8.32267 69.6051 7.19733 69.6051 6.12C69.6157 5.04267 69.6264 4.06133 69.6371 3.176C69.6584 2.28 69.6797 1.528 69.7011 0.919999C70.1171 0.866666 70.5224 0.829333 70.9171 0.808C71.3117 0.775999 71.6957 0.759999 72.0691 0.759999C74.5224 0.759999 76.3731 1.26667 77.6211 2.28C78.8797 3.28267 79.5091 4.76533 79.5091 6.728C79.5091 8.79733 78.8211 10.376 77.4451 11.464C76.0797 12.5413 74.1117 13.08 71.5411 13.08ZM72.4211 11.752C73.4344 11.752 74.2504 11.608 74.8691 11.32C75.4984 11.0213 75.9571 10.552 76.2451 9.912C76.5331 9.272 76.6771 8.424 76.6771 7.368C76.6771 5.69333 76.3357 4.424 75.6531 3.56C74.9811 2.696 73.9357 2.19467 72.5171 2.056C72.5064 2.344 72.4957 2.78133 72.4851 3.368C72.4744 3.944 72.4637 4.60533 72.4531 5.352C72.4531 6.088 72.4477 6.85067 72.4371 7.64C72.4371 8.42933 72.4317 9.18667 72.4211 9.912C72.4211 10.6267 72.4211 11.24 72.4211 11.752ZM83.6631 10.504C83.3857 10.504 83.0977 10.504 82.7991 10.504C82.5111 10.4933 82.2124 10.4773 81.9031 10.456C81.6684 11.288 81.4337 12.1573 81.1991 13.064L79.2791 12.936C79.8764 10.92 80.5431 8.888 81.2791 6.84C82.0151 4.78133 82.7991 2.78133 83.6311 0.839999C84.0257 0.797332 84.4631 0.759999 84.9431 0.728C85.4337 0.695999 85.9351 0.679999 86.4471 0.679999C87.0977 2.25867 87.7911 4.08267 88.5271 6.152C89.2631 8.22133 90.0204 10.4507 90.7991 12.84C90.1804 12.9467 89.5937 13.0267 89.0391 13.08C88.4951 13.1333 87.9404 13.16 87.3751 13.16C87.1511 12.264 86.9004 11.32 86.6231 10.328C85.6737 10.4453 84.6871 10.504 83.6631 10.504ZM84.2871 2.552C84.0631 3.16 83.7804 4.00267 83.4391 5.08C83.1084 6.15733 82.7404 7.42133 82.3351 8.872C82.7617 8.92533 83.1991 8.96267 83.6471 8.984C84.1057 9.00533 84.5964 9.016 85.1191 9.016C85.3111 9.016 85.5031 9.016 85.6951 9.016C85.8977 9.00533 86.0844 9 86.2551 9C86.0204 8.14667 85.7804 7.32 85.5351 6.52C85.3004 5.70933 85.0764 4.968 84.8631 4.296C84.6497 3.61333 84.4577 3.032 84.2871 2.552ZM98.6453 0.855999C99.2426 0.791999 99.792 0.743999 100.293 0.712C100.805 0.669333 101.28 0.648 101.717 0.648C101.963 1.448 102.245 2.28533 102.565 3.16C102.885 4.03467 103.221 4.91467 103.573 5.8C103.936 6.68533 104.304 7.53867 104.677 8.36C105.232 7.16533 105.76 5.93867 106.261 4.68C106.773 3.42133 107.275 2.08267 107.765 0.664C108.341 0.664 108.912 0.68 109.477 0.712C110.043 0.743999 110.523 0.786666 110.917 0.839999C110.917 1.42667 110.917 2.12533 110.917 2.936C110.928 3.736 110.933 4.6 110.933 5.528C110.944 6.44533 110.955 7.36267 110.965 8.28C110.976 9.19733 110.987 10.0613 110.997 10.872C111.008 11.6827 111.024 12.3813 111.045 12.968C110.8 12.9787 110.501 12.9893 110.149 13C109.797 13.0107 109.429 13.016 109.045 13.016C108.661 13.0267 108.304 13.032 107.973 13.032C108.016 11.9547 108.048 10.8773 108.069 9.8C108.091 8.712 108.107 7.656 108.117 6.632C108.139 5.608 108.149 4.65867 108.149 3.784C107.701 5.04267 107.237 6.24267 106.757 7.384C106.288 8.52533 105.787 9.65067 105.253 10.76L102.789 10.904C102.181 9.58133 101.616 8.31733 101.093 7.112C100.571 5.896 100.107 4.76533 99.7013 3.72L100.053 13.032L98.2453 12.968C98.2773 12.4027 98.3093 11.7573 98.3413 11.032C98.3733 10.3067 98.4 9.544 98.4213 8.744C98.4533 7.944 98.48 7.14933 98.5013 6.36C98.5333 5.56 98.56 4.80267 98.5813 4.088C98.6026 3.36267 98.6186 2.72267 98.6293 2.168C98.64 1.60267 98.6453 1.16533 98.6453 0.855999ZM121.796 13.08C121.423 13.048 120.825 13.0213 120.004 13C119.193 12.968 118.217 12.9467 117.076 12.936C115.945 12.9253 114.713 12.92 113.38 12.92C113.359 12.6213 113.332 12.168 113.3 11.56C113.279 10.9413 113.252 10.2373 113.22 9.448C113.188 8.65867 113.156 7.83733 113.124 6.984C113.092 6.13067 113.065 5.30933 113.044 4.52C113.023 3.72 113.001 3.01067 112.98 2.392C112.969 1.77333 112.964 1.30933 112.964 0.999999C113.433 0.999999 113.972 0.999999 114.58 0.999999C115.199 0.989333 115.844 0.978666 116.516 0.967999C117.188 0.957333 117.855 0.946666 118.516 0.936C119.177 0.914666 119.791 0.898666 120.356 0.888C120.932 0.866666 121.417 0.850666 121.812 0.839999L121.876 2.552L116.164 2.36C116.164 2.98933 116.164 3.62933 116.164 4.28C116.164 4.92 116.169 5.54933 116.18 6.168L121.556 5.992L121.492 7.752L116.196 7.528C116.207 8.28533 116.217 9.00533 116.228 9.688C116.239 10.3707 116.255 10.9893 116.276 11.544L121.86 11.352L121.796 13.08ZM132.352 13.08C132.106 13.0693 131.701 13.0587 131.136 13.048C130.57 13.0373 129.882 13.0267 129.072 13.016C128.272 13.016 127.386 13.0107 126.416 13C125.456 13 124.458 13 123.424 13C123.328 10.8027 123.258 8.712 123.216 6.728C123.173 4.744 123.152 2.81333 123.152 0.936C123.397 0.925333 123.824 0.919999 124.432 0.919999C125.04 0.909333 125.722 0.903999 126.48 0.903999C126.48 1.68267 126.474 2.54133 126.464 3.48C126.464 4.41867 126.453 5.37867 126.432 6.36C126.421 7.34133 126.405 8.30133 126.384 9.24C126.373 10.168 126.352 11.0267 126.32 11.816C127.429 11.816 128.506 11.8053 129.552 11.784C130.597 11.752 131.514 11.7147 132.304 11.672L132.352 13.08ZM133.386 13.032C133.386 11.912 133.386 10.7813 133.386 9.64C133.397 8.49867 133.402 7.39467 133.402 6.328C133.413 5.26133 133.423 4.26933 133.434 3.352C133.455 2.424 133.477 1.608 133.498 0.903999C134.117 0.903999 134.639 0.909333 135.066 0.919999C135.503 0.930666 135.893 0.946666 136.234 0.967999C136.234 2.81333 136.245 4.56267 136.266 6.216C137.717 6.20533 139.183 6.152 140.666 6.056C140.666 5.26667 140.666 4.44533 140.666 3.592C140.666 2.73867 140.666 1.864 140.666 0.967999C141.594 0.904 142.533 0.872 143.482 0.872C143.514 1.75733 143.541 2.728 143.562 3.784C143.583 4.82933 143.594 5.90133 143.594 7C143.605 8.09867 143.61 9.16533 143.61 10.2C143.621 11.2347 143.626 12.1787 143.626 13.032C143.071 13.032 142.543 13.0267 142.042 13.016C141.551 13.0053 141.061 12.9893 140.57 12.968C140.591 12.392 140.607 11.656 140.618 10.76C140.629 9.85333 140.639 8.84 140.65 7.72C139.658 7.72 138.81 7.71467 138.106 7.704C137.413 7.68267 136.805 7.656 136.282 7.624C136.314 9.59733 136.362 11.3787 136.426 12.968C135.957 12.9893 135.477 13.0053 134.986 13.016C134.495 13.0267 133.962 13.032 133.386 13.032ZM150.51 13.08C149.678 13.08 148.91 12.9307 148.206 12.632C147.512 12.3227 146.904 11.8907 146.382 11.336C145.87 10.7813 145.47 10.1307 145.182 9.384C144.894 8.62667 144.75 7.80533 144.75 6.92C144.75 6.03467 144.894 5.21867 145.182 4.472C145.47 3.71467 145.87 3.05867 146.382 2.504C146.904 1.94933 147.512 1.52267 148.206 1.224C148.91 0.914666 149.678 0.759999 150.51 0.759999C151.342 0.759999 152.11 0.914666 152.814 1.224C153.518 1.52267 154.126 1.94933 154.638 2.504C155.16 3.05867 155.56 3.71467 155.838 4.472C156.126 5.21867 156.27 6.03467 156.27 6.92C156.27 7.80533 156.126 8.62667 155.838 9.384C155.56 10.1307 155.16 10.7813 154.638 11.336C154.126 11.8907 153.518 12.3227 152.814 12.632C152.11 12.9307 151.342 13.08 150.51 13.08ZM150.846 11.736C151.368 11.736 151.822 11.56 152.206 11.208C152.59 10.856 152.888 10.36 153.102 9.72C153.315 9.08 153.422 8.33333 153.422 7.48C153.422 6.46667 153.278 5.55467 152.99 4.744C152.702 3.93333 152.312 3.29333 151.822 2.824C151.331 2.344 150.782 2.104 150.174 2.104C149.662 2.104 149.208 2.28 148.814 2.632C148.43 2.984 148.131 3.48 147.918 4.12C147.704 4.76 147.598 5.50667 147.598 6.36C147.598 7.36267 147.742 8.27467 148.03 9.096C148.318 9.90667 148.707 10.552 149.198 11.032C149.688 11.5013 150.238 11.736 150.846 11.736ZM163.738 13.176C163.162 11.7253 162.575 10.5093 161.978 9.528C161.381 8.536 160.815 7.832 160.282 7.416C160.303 8.312 160.319 9.24 160.33 10.2C160.341 11.16 160.346 12.104 160.346 13.032C159.866 13.032 159.359 13.0213 158.826 13C158.303 12.9893 157.85 12.9787 157.466 12.968C157.466 12.0613 157.466 11.1173 157.466 10.136C157.466 9.15467 157.461 8.18933 157.45 7.24C157.45 6.28 157.445 5.384 157.434 4.552C157.423 3.72 157.413 2.99467 157.402 2.376C157.402 1.75733 157.397 1.29867 157.386 0.999999C157.93 0.914666 158.469 0.856 159.002 0.823999C159.546 0.781333 160.053 0.759999 160.522 0.759999C161.717 0.759999 162.762 0.887999 163.658 1.144C164.554 1.38933 165.253 1.74667 165.754 2.216C166.255 2.67467 166.506 3.23467 166.506 3.896C166.506 4.376 166.373 4.83467 166.106 5.272C165.85 5.70933 165.498 6.088 165.05 6.408C164.602 6.728 164.095 6.952 163.53 7.08C163.701 7.28267 163.914 7.57067 164.17 7.944C164.426 8.30667 164.693 8.71733 164.97 9.176C165.258 9.624 165.535 10.0773 165.802 10.536C166.069 10.9947 166.309 11.4267 166.522 11.832C166.735 12.2267 166.89 12.5467 166.986 12.792C166.815 12.824 166.581 12.8613 166.282 12.904C165.994 12.9467 165.685 12.984 165.354 13.016C165.034 13.0587 164.725 13.0907 164.426 13.112C164.138 13.144 163.909 13.1653 163.738 13.176ZM160.09 2.008C160.122 2.488 160.154 3.144 160.186 3.976C160.218 4.808 160.25 5.736 160.282 6.76C161.338 6.71733 162.17 6.49867 162.778 6.104C163.397 5.69867 163.706 5.16533 163.706 4.504C163.706 4.024 163.546 3.59733 163.226 3.224C162.917 2.84 162.49 2.54133 161.946 2.328C161.402 2.11467 160.783 2.008 160.09 2.008ZM174.753 13.016C174.881 10.424 174.945 7.78933 174.945 5.112C174.945 4.664 174.939 4.17333 174.929 3.64C174.929 3.096 174.923 2.584 174.913 2.104C174.913 1.624 174.907 1.24 174.897 0.952C175.025 0.930666 175.238 0.914666 175.537 0.903999C175.846 0.893333 176.182 0.888 176.545 0.888C176.833 0.888 177.115 0.893333 177.393 0.903999C177.681 0.914666 177.926 0.930666 178.129 0.952C178.107 1.61333 178.091 2.27467 178.081 2.936C178.07 3.59733 178.059 4.22667 178.049 4.824C178.049 5.41067 178.049 5.92267 178.049 6.36C178.049 7.81067 178.065 9.06933 178.097 10.136C178.139 11.2027 178.198 12.1467 178.273 12.968C177.697 12.9893 177.11 13 176.513 13C175.926 13.0107 175.339 13.016 174.753 13.016ZM182.15 13.08C181.841 13.08 181.516 13.0693 181.174 13.048C180.844 13.0373 180.518 13.0213 180.198 13C180.198 11.8373 180.198 10.6693 180.198 9.496C180.209 8.32267 180.214 7.19733 180.214 6.12C180.225 5.04267 180.236 4.06133 180.246 3.176C180.268 2.28 180.289 1.528 180.31 0.919999C180.726 0.866666 181.132 0.829333 181.526 0.808C181.921 0.775999 182.305 0.759999 182.678 0.759999C185.132 0.759999 186.982 1.26667 188.23 2.28C189.489 3.28267 190.118 4.76533 190.118 6.728C190.118 8.79733 189.43 10.376 188.054 11.464C186.689 12.5413 184.721 13.08 182.15 13.08ZM183.03 11.752C184.044 11.752 184.86 11.608 185.478 11.32C186.108 11.0213 186.566 10.552 186.854 9.912C187.142 9.272 187.286 8.424 187.286 7.368C187.286 5.69333 186.945 4.424 186.262 3.56C185.59 2.696 184.545 2.19467 183.126 2.056C183.116 2.344 183.105 2.78133 183.094 3.368C183.084 3.944 183.073 4.60533 183.062 5.352C183.062 6.088 183.057 6.85067 183.046 7.64C183.046 8.42933 183.041 9.18667 183.03 9.912C183.03 10.6267 183.03 11.24 183.03 11.752ZM194.272 10.504C193.995 10.504 193.707 10.504 193.408 10.504C193.12 10.4933 192.822 10.4773 192.512 10.456C192.278 11.288 192.043 12.1573 191.808 13.064L189.888 12.936C190.486 10.92 191.152 8.888 191.888 6.84C192.624 4.78133 193.408 2.78133 194.24 0.839999C194.635 0.797332 195.072 0.759999 195.552 0.728C196.043 0.695999 196.544 0.679999 197.056 0.679999C197.707 2.25867 198.4 4.08267 199.136 6.152C199.872 8.22133 200.63 10.4507 201.408 12.84C200.79 12.9467 200.203 13.0267 199.648 13.08C199.104 13.1333 198.55 13.16 197.984 13.16C197.76 12.264 197.51 11.32 197.232 10.328C196.283 10.4453 195.296 10.504 194.272 10.504ZM194.896 2.552C194.672 3.16 194.39 4.00267 194.048 5.08C193.718 6.15733 193.35 7.42133 192.944 8.872C193.371 8.92533 193.808 8.96267 194.256 8.984C194.715 9.00533 195.206 9.016 195.728 9.016C195.92 9.016 196.112 9.016 196.304 9.016C196.507 9.00533 196.694 9 196.864 9C196.63 8.14667 196.39 7.32 196.144 6.52C195.91 5.70933 195.686 4.968 195.472 4.296C195.259 3.61333 195.067 3.032 194.896 2.552ZM204.4 13.08C204.091 13.08 203.766 13.0693 203.424 13.048C203.094 13.0373 202.768 13.0213 202.448 13C202.448 11.8373 202.448 10.6693 202.448 9.496C202.459 8.32267 202.464 7.19733 202.464 6.12C202.475 5.04267 202.486 4.06133 202.496 3.176C202.518 2.28 202.539 1.528 202.56 0.919999C202.976 0.866666 203.382 0.829333 203.776 0.808C204.171 0.775999 204.555 0.759999 204.928 0.759999C207.382 0.759999 209.232 1.26667 210.48 2.28C211.739 3.28267 212.368 4.76533 212.368 6.728C212.368 8.79733 211.68 10.376 210.304 11.464C208.939 12.5413 206.971 13.08 204.4 13.08ZM205.28 11.752C206.294 11.752 207.11 11.608 207.728 11.32C208.358 11.0213 208.816 10.552 209.104 9.912C209.392 9.272 209.536 8.424 209.536 7.368C209.536 5.69333 209.195 4.424 208.512 3.56C207.84 2.696 206.795 2.19467 205.376 2.056C205.366 2.344 205.355 2.78133 205.344 3.368C205.334 3.944 205.323 4.60533 205.312 5.352C205.312 6.088 205.307 6.85067 205.296 7.64C205.296 8.42933 205.291 9.18667 205.28 9.912C205.28 10.6267 205.28 11.24 205.28 11.752ZM222.327 13.08C221.954 13.048 221.357 13.0213 220.535 13C219.725 12.968 218.749 12.9467 217.607 12.936C216.477 12.9253 215.245 12.92 213.911 12.92C213.89 12.6213 213.863 12.168 213.831 11.56C213.81 10.9413 213.783 10.2373 213.751 9.448C213.719 8.65867 213.687 7.83733 213.655 6.984C213.623 6.13067 213.597 5.30933 213.575 4.52C213.554 3.72 213.533 3.01067 213.511 2.392C213.501 1.77333 213.495 1.30933 213.495 0.999999C213.965 0.999999 214.503 0.999999 215.111 0.999999C215.73 0.989333 216.375 0.978666 217.047 0.967999C217.719 0.957333 218.386 0.946666 219.047 0.936C219.709 0.914666 220.322 0.898666 220.887 0.888C221.463 0.866666 221.949 0.850666 222.343 0.839999L222.407 2.552L216.695 2.36C216.695 2.98933 216.695 3.62933 216.695 4.28C216.695 4.92 216.701 5.54933 216.711 6.168L222.087 5.992L222.023 7.752L216.727 7.528C216.738 8.28533 216.749 9.00533 216.759 9.688C216.77 10.3707 216.786 10.9893 216.807 11.544L222.391 11.352L222.327 13.08Z" fill="black"/>
</svg>
